<svg xmlns="http://www.w3.org/2000/svg" viewBox="0 0 512 512" role="img" aria-labelledby="title desc">
<title id="title">NUMA</title><desc id="desc">Mascota camello amigable de PALMYRA</desc>
<defs><linearGradient id="fur" x1="0" y1="0" x2="1" y2="1"><stop offset="0" stop-color="#F7C66A"/><stop offset="1" stop-color="#D88A2C"/></linearGradient><linearGradient id="shirt" x1="0" y1="0" x2="1" y2="1"><stop offset="0" stop-color="#33215F"/><stop offset="1" stop-color="#6D3BD2"/></linearGradient><filter id="shadow" x="-30%" y="-30%" width="160%" height="160%"><feDropShadow dx="0" dy="10" stdDeviation="9" flood-opacity=".18"/></filter></defs>
<g filter="url(#shadow)">
<path d="M184 435c7-61 42-96 80-101 44-6 93 20 103 101H184Z" fill="url(#shirt)"/>
<path d="M271 327c-19-29-22-54-12-78 13-32 43-53 78-51 45 2 79 37 79 80 0 25-11 46-29 62l-16 17-74 0-26-30Z" fill="url(#fur)"/>
<path d="M281 215c-20-30-24-69-4-96 17-23 48-33 78-24 30 9 50 32 54 59 4 29-8 55-29 72l-22 16-56-4-21-23Z" fill="url(#fur)"/>
<path d="M293 123c-7-32 7-65 35-75 29-10 59 7 65 37 4 20-4 39-18 52-26-16-55-19-82-14Z" fill="#E4A245"/>
<path d="M300 105c-16-14-26-37-22-59 4-24 22-41 46-44 26-3 49 13 57 38-23-11-45-9-62 2-13 9-18 23-19 38Z" fill="#C87928"/>
<path d="M349 70c9-16 25-25 40-22 17 3 29 18 27 35-2 16-13 28-28 31-7-17-20-32-39-44Z" fill="#E4A245"/>
<ellipse cx="327" cy="147" rx="16" ry="22" fill="#fff"/><ellipse cx="330" cy="151" rx="8" ry="12" fill="#241538"/><circle cx="333" cy="146" r="3.5" fill="#fff"/>
<ellipse cx="380" cy="147" rx="16" ry="22" fill="#fff"/><ellipse cx="383" cy="151" rx="8" ry="12" fill="#241538"/><circle cx="386" cy="146" r="3.5" fill="#fff"/>
<path d="M348 177c10 0 20-2 29-7-3 21-14 31-30 31-17 0-29-11-31-31 9 5 20 7 32 7Z" fill="#8D4C25"/>
<path d="M338 198c8 12 19 17 31 15 11-1 19-7 24-17-2 22-15 36-31 36-17 0-29-14-24-34Z" fill="#EF6F72"/>
<path d="M352 226c-3 9-2 17 2 25" stroke="#B86C29" stroke-width="7" stroke-linecap="round"/>
<path d="M425 199c20 4 37 16 44 32" stroke="#D88A2C" stroke-width="22" stroke-linecap="round"/><path d="M458 226c15-5 26-14 32-26" stroke="#D88A2C" stroke-width="18" stroke-linecap="round"/><path d="M445 205c17-1 30-8 40-19" stroke="#E4A245" stroke-width="13" stroke-linecap="round"/>
<path d="M242 336c-22-9-36-25-42-45" stroke="#D88A2C" stroke-width="24" stroke-linecap="round"/><path d="M199 292c-8-17-19-27-35-33" stroke="#D88A2C" stroke-width="18" stroke-linecap="round"/><path d="M177 262c-14-2-25-9-34-20" stroke="#E4A245" stroke-width="13" stroke-linecap="round"/>
<path d="M302 337c15 14 32 20 52 20 20 0 37-6 52-20" stroke="#23153F" stroke-width="6" fill="none" opacity=".65"/>
<text x="350" y="405" text-anchor="middle" font-family="Arial,sans-serif" font-size="54" font-weight="900" fill="#fff">N</text>
<path d="M291 113c-10-6-22-7-33-2M398 112c11-6 23-6 33 1" stroke="#7A4722" stroke-width="7" stroke-linecap="round" fill="none"/>
</g></svg>